<?xml version="1.0" encoding="utf-8"?>
<!-- Generator: Adobe Illustrator 25.4.1, SVG Export Plug-In . SVG Version: 6.00 Build 0)  -->
<svg version="1.1" id="Laag_1" xmlns="http://www.w3.org/2000/svg" xmlns:xlink="http://www.w3.org/1999/xlink" x="0px" y="0px"
	 viewBox="0 0 1080 117.3" style="enable-background:new 0 0 1080 117.3;" xml:space="preserve">
<style type="text/css">
	.st0{fill:#014783;}
	.st1{fill:#44C2F4;}
	.st2{fill:#0F7FC7;}
</style>
<g>
	<g>
		<path class="st0" d="M102.2,106.9c0,5.2-4,9.4-9.2,9.4c-4.7,0-7.5-2.3-9.2-6.7l-8-20.8H26.3l-8,20.9c-1.7,4.2-5,6.5-9,6.5
			c-5.4,0-9.2-4.2-9.2-9.4c0-1.5,0.3-3,1-4.9l36.4-90.7C40.2,4,45.6,0.8,51.4,0.8c5.7,0,11.1,3.4,13.9,10.6l35.7,90.5
			C101.9,104.1,102.2,105.6,102.2,106.9z M69.2,71.9L51.3,25.6h-0.5L32.8,71.9H69.2z"/>
		<path class="st0" d="M307.9,106.6c0,5-3.9,9-9,9h-52.5c-5.5,0-9.7-4.4-9.7-9.9v-94c0-5.7,4.2-10.1,9.7-10.1h50.4
			c5.2,0,9.2,3.9,9.2,9c0,5-4,8.9-9.2,8.9h-40.1v30h35.4c5,0,8.9,3.9,8.9,8.5s-3.9,8.5-8.9,8.5h-35.4v31h42.1
			C304.1,97.7,307.9,101.4,307.9,106.6z"/>
		<path class="st0" d="M394.3,106.6c0,5.2-3.9,9-9,9h-46.9c-5.7,0-9.9-4.4-9.9-10.1V10.9c0-5.7,4.2-10.1,10.1-10.1
			s10.1,4.4,10.1,10.1v86.8h36.7C390.4,97.7,394.3,101.6,394.3,106.6z"/>
		<path class="st0" d="M482.4,106.6c0,5-3.9,9-9,9h-52.5c-5.5,0-9.7-4.4-9.7-9.9v-94c0-5.7,4.2-10.1,9.7-10.1h50.4
			c5.2,0,9.2,3.9,9.2,9c0,5-4,8.9-9.2,8.9h-40.1v30h35.4c5,0,8.9,3.9,8.9,8.5s-3.9,8.5-8.9,8.5h-35.4v31h42.1
			C478.5,97.7,482.4,101.4,482.4,106.6z"/>
		<path class="st0" d="M586.6,106.6c0,5.5-4.4,9.9-9.7,9.9c-3.2,0-6-1.5-8.4-4.5l-31.3-39.2H523v33.7c0,5.5-4.4,10.1-10.1,10.1
			c-5.7,0-10.1-4.5-10.1-10.1v-95c0-5.2,4.4-9.7,9.9-9.7h26.6c26.1,0,39.9,15.9,39.9,35c0,15.2-8.7,26.5-21.3,32.2l25.8,30.5
			C585.5,101.2,586.6,103.4,586.6,106.6z M523,55.8h14.7c12.7,0,20.8-6.4,20.8-17.9c0-12.1-8.2-18.3-20.4-18.3H523V55.8z"/>
		<path class="st0" d="M696.7,106.9c0,5.2-4,9.4-9.2,9.4c-4.7,0-7.5-2.3-9.2-6.7l-8-20.8h-49.4l-8,20.9c-1.7,4.2-5,6.5-9,6.5
			c-5.4,0-9.2-4.2-9.2-9.4c0-1.5,0.3-3,1-4.9l36.4-90.7C634.7,4,640.1,0.8,646,0.8c5.7,0,11.1,3.4,13.9,10.6l35.7,90.5
			C696.4,104.1,696.7,105.6,696.7,106.9z M663.7,71.9l-17.9-46.3h-0.5l-17.9,46.3H663.7z"/>
		<path class="st0" d="M786.7,10.7c0,5-3.7,8.9-8.7,8.9h-28.5v86.8c0,5.5-4.4,10.1-10.1,10.1c-5.7,0-10.1-4.5-10.1-10.1V19.6h-28.3
			c-5.2,0-8.9-3.9-8.9-8.9c0-5.2,3.7-9,8.7-9h77.3C783,1.7,786.7,5.5,786.7,10.7z"/>
		<path class="st0" d="M803.5,106.4V10.9c0-5.7,4.4-10.1,10.1-10.1c5.9,0,10.1,4.4,10.1,10.1v95.5c0,5.5-4.2,10.1-10.1,10.1
			C807.8,116.5,803.5,111.9,803.5,106.4z"/>
		<path class="st0" d="M844.9,58.7c0-33.9,25.8-58.7,58.3-58.7c32.5,0,58.2,24.8,58.2,58.7c0,34.2-25.6,58.7-58.2,58.7
			C870.7,117.3,844.9,92.8,844.9,58.7z M940.4,58.7c0-25.5-17.6-40.4-37.2-40.4c-19.6,0-37.5,14.9-37.5,40.4
			c0,25.5,17.9,40.4,37.5,40.4C922.8,99,940.4,84.1,940.4,58.7z"/>
		<path class="st0" d="M982.6,106.7V13.2c0-7,5.5-12.4,12.6-12.4c4,0,8.2,1.5,12.2,7.2l52.8,75.4h0.2V10.4c0-5.4,4.2-9.6,9.9-9.6
			c5.5,0,9.7,4.2,9.7,9.6v93.5c0,7.2-5.4,12.6-12.4,12.6c-4.2,0-8.5-2-12.6-7.7l-52.5-74.6h-0.3l0.2,72.6c0,5.4-4.4,9.7-10.1,9.7
			C986.8,116.5,982.6,112.1,982.6,106.7z"/>
	</g>
	<g>
		<g>
			<path class="st1" d="M120.6,115.6c-1.7,0-3.4-0.4-4.9-1.4c-4.5-2.7-6-8.6-3.3-13.1l25.3-42.5l-25.3-42.5
				c-2.7-4.5-1.2-10.4,3.3-13.1c4.5-2.7,10.4-1.2,13.1,3.3l28.3,47.4c1.8,3,1.8,6.8,0,9.8L128.8,111
				C127,114,123.8,115.6,120.6,115.6z"/>
		</g>
		<g>
			<path class="st0" d="M212.1,115.6c-3.3,0-6.4-1.7-8.2-4.7l-28.3-47.4c-1.8-3-1.8-6.8,0-9.8l28.3-47.4c2.7-4.5,8.6-6,13.1-3.3
				c4.5,2.7,6,8.6,3.3,13.1L195,58.7l25.3,42.5c2.7,4.5,1.2,10.4-3.3,13.1C215.4,115.2,213.8,115.6,212.1,115.6z"/>
		</g>
		<g>
			<path class="st2" d="M152.2,115.6c-1.7,0-3.4-0.4-4.9-1.4c-4.5-2.7-6-8.6-3.3-13.1l25.3-42.5L144,16.2
				c-2.7-4.5-1.2-10.4,3.3-13.1c4.5-2.7,10.4-1.2,13.1,3.3l28.3,47.4c1.8,3,1.8,6.8,0,9.8L160.4,111
				C158.6,114,155.4,115.6,152.2,115.6z"/>
		</g>
	</g>
</g>
</svg>
